<svg width="1024" height="1024" viewBox="0 0 1024 1024" xmlns="http://www.w3.org/2000/svg">
  <defs>
    <linearGradient id="bg" x1="0" y1="0" x2="1" y2="1">
      <stop offset="0%" stop-color="#156D78"/>
      <stop offset="100%" stop-color="#0C386A"/>
    </linearGradient>
  </defs>

  <rect width="1024" height="1024" fill="url(#bg)"/>

  <g transform="translate(-559,-519) scale(2)">
  <g transform="translate(200,240)">
    <g transform="translate(0.000000,544.000000) scale(0.100000,-0.100000)"
       fill="#ffffff" stroke="none">
      <path d="M3594 4118 c-22 -24 -48 -49 -57 -56 -16 -12 -17 -117 -17 -1387 0
      -1374 0 -1374 28 -1389 16 -8 41 -31 56 -50 27 -36 27 -36 234 -36 206 0 206
      0 248 43 22 23 49 48 59 56 17 14 18 50 12 822 -6 722 -5 810 9 823 20 21 48
      20 69 0 14 -15 16 -46 14 -267 -3 -250 -3 -250 22 -268 13 -11 30 -24 37 -29
      9 -8 12 -90 12 -345 0 -334 0 -334 33 -351 17 -9 35 -22 39 -28 4 -6 8 -86 8
      -178 0 -144 2 -169 17 -180 9 -7 35 -32 57 -55 42 -43 42 -43 165 -43 124 0
      124 0 206 82 45 46 90 89 99 96 23 18 23 183 0 206 -8 9 -19 16 -24 16 -5 0
      -16 7 -24 16 -14 13 -16 55 -16 304 0 249 -2 291 -16 304 -8 9 -19 16 -24 16
      -5 0 -16 7 -24 16 -14 13 -16 59 -16 344 0 285 -2 331 -16 344 -8 9 -19 16
      -24 16 -5 0 -16 7 -24 16 -14 13 -16 59 -16 344 0 294 -2 331 -17 342 -9 7
      -35 32 -57 56 -42 42 -42 42 -209 42 -167 0 -167 0 -192 -40 -25 -40 -46 -48
      -75 -30 -13 8 -14 37 -12 183 4 157 2 176 -14 188 -9 8 -36 33 -58 57 -42 42
      -42 42 -246 42 -205 0 -205 0 -246 -42z"/>
      <path d="M1776 3744 c-14 -14 -16 -139 -16 -1224 0 -1113 1 -1210 17 -1222 9
      -7 35 -32 57 -55 42 -43 42 -43 208 -43 167 0 167 0 194 36 15 19 40 42 56 50
      28 15 28 15 28 1229 0 1090 -2 1215 -16 1229 -13 14 -51 16 -264 16 -213 0
      -251 -2 -264 -16z"/>
      <path d="M2555 3318 c-22 -24 -48 -47 -58 -53 -17 -9 -18 -60 -17 -985 0 -920
      1 -976 17 -985 10 -5 36 -29 58 -52 41 -43 41 -43 365 -43 324 0 324 0 365 43
      22 23 48 47 58 52 16 9 17 65 17 985 1 925 0 976 -17 985 -10 6 -36 29 -58 53
      -41 42 -41 42 -365 42 -325 0 -325 0 -365 -42z m548 -293 c32 -32 28 -115 -6
      -137 -7 -4 -86 -8 -177 -8 -91 0 -170 4 -177 8 -34 22 -38 105 -6 137 21 22
      345 22 366 0z m0 -1360 c32 -32 28 -115 -6 -137 -16 -10 -338 -10 -354 0 -34
      22 -38 105 -6 137 21 22 345 22 366 0z"/>
    </g>
  </g>
  </g>
</svg>
